<svg width="18" height="16" viewBox="0 0 18 16" fill="none" xmlns="http://www.w3.org/2000/svg">
<path d="M3.18367 15.5316C3.24836 15.758 3.45528 15.9141 3.69073 15.9141H14.3079C14.5434 15.9141 14.7503 15.758 14.815 15.5316L16.815 8.53125H1.18359L3.18367 15.5316ZM11.4147 13.1907L11.942 10.0266C11.9899 9.73932 12.2616 9.54512 12.5489 9.59314C12.8362 9.64103 13.0303 9.91272 12.9824 10.2L12.455 13.3641C12.412 13.622 12.1886 13.8048 11.9355 13.8048C11.9067 13.8048 11.8775 13.8025 11.8482 13.7976C11.5609 13.7497 11.3668 13.4779 11.4147 13.1907ZM8.47197 10.1133C8.47197 9.82205 8.70808 9.58594 8.99932 9.58594C9.29055 9.58594 9.52666 9.82205 9.52666 10.1133V13.2773C9.52666 13.5686 9.29055 13.8047 8.99932 13.8047C8.70808 13.8047 8.47197 13.5686 8.47197 13.2773V10.1133ZM5.48489 9.59314C5.77222 9.5453 6.04387 9.73932 6.09176 10.0266L6.6191 13.1907C6.66698 13.4779 6.47292 13.7497 6.18562 13.7976C6.1563 13.8024 6.12709 13.8048 6.0983 13.8048C5.84514 13.8048 5.62175 13.6221 5.57876 13.3641L5.05141 10.2C5.00353 9.91272 5.19759 9.64099 5.48489 9.59314Z" fill="#060606"/>
<path d="M17.4727 5.36719H15.6167L11.5563 0.291674C11.3744 0.0643182 11.0426 0.0273688 10.8151 0.209338C10.5877 0.391271 10.5508 0.723111 10.7328 0.950537L14.2661 5.36719H3.73391L7.26725 0.950537C7.44919 0.723111 7.41231 0.391236 7.18492 0.209338C6.95746 0.0273688 6.62562 0.064283 6.44372 0.291674L2.38328 5.36719H0.527344C0.236109 5.36719 0 5.60329 0 5.89453V6.94922C0 7.24045 0.236109 7.47656 0.527344 7.47656H17.4727C17.7639 7.47656 18 7.24045 18 6.94922V5.89453C18 5.60329 17.7639 5.36719 17.4727 5.36719Z" fill="#060606"/>
</svg>
