<svg width="20" height="20" viewBox="0 0 20 20" fill="none" xmlns="http://www.w3.org/2000/svg">
<path fill-rule="evenodd" clip-rule="evenodd" d="M12.0839 2.15622C12.7311 1.88803 13.4248 1.75 14.1254 1.75C14.826 1.75 15.5197 1.88803 16.167 2.15622C16.8142 2.4244 17.4023 2.81747 17.8975 3.31298C18.3929 3.80821 18.7859 4.39618 19.0541 5.0433C19.3222 5.69053 19.4603 6.38426 19.4603 7.08486C19.4603 7.78545 19.3222 8.47918 19.0541 9.12641C18.7859 9.77359 18.3929 10.3616 17.8974 10.8569C17.8974 10.8569 17.8973 10.8569 17.8973 10.857L10.5308 18.2235C10.3901 18.3642 10.1993 18.4432 10.0004 18.4432C9.80151 18.4432 9.61075 18.3642 9.4701 18.2235L2.10343 10.8569C1.10303 9.85646 0.541016 8.49963 0.541016 7.08486C0.541016 5.67008 1.10303 4.31325 2.10343 3.31286C3.10382 2.31246 4.46065 1.75045 5.87542 1.75045C7.2902 1.75045 8.64703 2.31246 9.64742 3.31286L10.0004 3.66586L10.3533 3.31298C10.8486 2.81747 11.4366 2.4244 12.0839 2.15622ZM14.1254 3.25C13.6219 3.25 13.1233 3.34921 12.6581 3.54197C12.1929 3.73472 11.7702 4.01725 11.4142 4.37339L11.4141 4.37352L10.5308 5.25685C10.3901 5.3975 10.1993 5.47652 10.0004 5.47652C9.80151 5.47652 9.61075 5.3975 9.4701 5.25685L8.58676 4.37352C7.86767 3.65443 6.89237 3.25045 5.87542 3.25045C4.85848 3.25045 3.88318 3.65443 3.16409 4.37352C2.445 5.09261 2.04102 6.06791 2.04102 7.08486C2.04102 8.1018 2.445 9.0771 3.16409 9.79619L10.0004 16.6325L16.8368 9.79619L16.8369 9.79607C17.193 9.44009 17.4756 9.01742 17.6683 8.55222C17.8611 8.08702 17.9603 7.58841 17.9603 7.08486C17.9603 6.5813 17.8611 6.08269 17.6683 5.61749C17.4756 5.15229 17.193 4.72962 16.8369 4.37364L16.8366 4.37339C16.4807 4.01725 16.058 3.73472 15.5928 3.54197C15.1276 3.34921 14.629 3.25 14.1254 3.25Z" fill="#060606"/>
</svg>
