<svg width="14" height="14" viewBox="0 0 14 14" fill="none" xmlns="http://www.w3.org/2000/svg">
<path d="M7.00076 1.44745C8.80947 1.44745 9.02366 1.45423 9.73818 1.48681C10.1678 1.49206 10.5933 1.57095 10.9962 1.72003C11.2884 1.83272 11.5538 2.00535 11.7753 2.22681C11.9967 2.44826 12.1694 2.71363 12.282 3.00584C12.4311 3.40878 12.51 3.8343 12.5153 4.2639C12.5475 4.97842 12.5546 5.19261 12.5546 7.00132C12.5546 8.81003 12.5479 9.02422 12.5153 9.73874C12.51 10.1683 12.4311 10.5939 12.282 10.9968C12.1694 11.289 11.9967 11.5544 11.7753 11.7758C11.5538 11.9973 11.2884 12.1699 10.9962 12.2826C10.5933 12.4317 10.1678 12.5106 9.73818 12.5158C9.02398 12.5481 8.80979 12.5552 7.00076 12.5552C5.19172 12.5552 4.97753 12.5484 4.26334 12.5158C3.83373 12.5106 3.40821 12.4317 3.00527 12.2826C2.71307 12.1699 2.44769 11.9973 2.22624 11.7758C2.00479 11.5544 1.83216 11.289 1.71947 10.9968C1.57038 10.5939 1.4915 10.1683 1.48624 9.73874C1.45398 9.02422 1.44689 8.81003 1.44689 7.00132C1.44689 5.19261 1.45366 4.97842 1.48624 4.2639C1.4915 3.8343 1.57038 3.40878 1.71947 3.00584C1.83216 2.71363 2.00479 2.44826 2.22624 2.22681C2.44769 2.00535 2.71307 1.83272 3.00527 1.72003C3.40821 1.57095 3.83373 1.49206 4.26334 1.48681C4.97785 1.45455 5.19205 1.44745 7.00076 1.44745V1.44745ZM7.00076 0.226807C5.16205 0.226807 4.93043 0.234549 4.20785 0.267452C3.64561 0.278635 3.08934 0.385091 2.56269 0.582291C2.11092 0.752505 1.70172 1.01925 1.36366 1.3639C1.01869 1.70209 0.751722 2.11152 0.581401 2.56358C0.384201 3.09022 0.277746 3.6465 0.266563 4.20874C0.234304 4.93068 0.226562 5.16229 0.226562 7.001C0.226562 8.83971 0.234304 9.07132 0.267208 9.7939C0.278391 10.3561 0.384847 10.9124 0.582046 11.4391C0.752178 11.8911 1.01892 12.3005 1.36366 12.6387C1.70191 12.9835 2.11133 13.2502 2.56334 13.4204C3.08998 13.6176 3.64626 13.724 4.2085 13.7352C4.93108 13.7674 5.16172 13.7758 7.0014 13.7758C8.84108 13.7758 9.07172 13.7681 9.7943 13.7352C10.3565 13.724 10.9128 13.6176 11.4395 13.4204C11.8893 13.246 12.2978 12.9796 12.6389 12.6384C12.98 12.2971 13.246 11.8884 13.4201 11.4384C13.6173 10.9118 13.7238 10.3555 13.735 9.79326C13.7672 9.07132 13.775 8.83971 13.775 7.001C13.775 5.16229 13.7672 4.93068 13.7343 4.2081C13.7231 3.64585 13.6167 3.08958 13.4195 2.56294C13.2493 2.11093 12.9826 1.70151 12.6379 1.36326C12.2996 1.01852 11.8902 0.751777 11.4382 0.581645C10.9115 0.384445 10.3553 0.27799 9.79301 0.266807C9.07108 0.234549 8.83947 0.226807 7.00076 0.226807Z" fill="white"/>
<path d="M7.00215 3.52368C6.31413 3.52368 5.64155 3.7277 5.06948 4.10995C4.49741 4.4922 4.05154 5.0355 3.78824 5.67115C3.52494 6.3068 3.45605 7.00625 3.59028 7.68105C3.72451 8.35586 4.05582 8.9757 4.54233 9.46221C5.02884 9.94872 5.64868 10.28 6.32349 10.4143C6.99829 10.5485 7.69774 10.4796 8.33339 10.2163C8.96904 9.953 9.51234 9.50713 9.89459 8.93506C10.2768 8.36299 10.4809 7.69041 10.4809 7.00239C10.4809 6.07978 10.1144 5.19496 9.46197 4.54257C8.80958 3.89019 7.92476 3.52368 7.00215 3.52368ZM7.00215 9.26046C6.55555 9.26046 6.11897 9.12802 5.74764 8.8799C5.3763 8.63178 5.08688 8.27912 4.91597 7.86651C4.74506 7.45391 4.70034 6.99989 4.78747 6.56186C4.8746 6.12384 5.08966 5.72149 5.40546 5.4057C5.72125 5.0899 6.1236 4.87484 6.56162 4.78771C6.99964 4.70059 7.45367 4.7453 7.86627 4.91621C8.27888 5.08712 8.63154 5.37654 8.87966 5.74788C9.12778 6.11921 9.26021 6.55579 9.26021 7.00239C9.26021 7.60127 9.02231 8.17561 8.59884 8.59908C8.17537 9.02255 7.60102 9.26046 7.00215 9.26046Z" fill="white"/>
<path d="M10.6176 4.19636C11.0665 4.19636 11.4305 3.83241 11.4305 3.38346C11.4305 2.93451 11.0665 2.57056 10.6176 2.57056C10.1686 2.57056 9.80469 2.93451 9.80469 3.38346C9.80469 3.83241 10.1686 4.19636 10.6176 4.19636Z" fill="white"/>
</svg>
