<svg width="18" height="18" viewBox="0 0 18 18" fill="none" xmlns="http://www.w3.org/2000/svg">
<path d="M7.42011 14.8246C3.33295 14.8246 0.0078125 11.4995 0.0078125 7.41229C0.0078125 3.32513 3.33295 0 7.42011 0C11.5073 0 14.8324 3.32513 14.8324 7.41229C14.8324 11.4995 11.5073 14.8246 7.42011 14.8246ZM7.42011 1.40517C4.10776 1.40517 1.41299 4.09995 1.41299 7.41229C1.41299 10.7246 4.10776 13.4194 7.42011 13.4194C10.7325 13.4194 13.4272 10.7246 13.4272 7.41229C13.4272 4.09995 10.7325 1.40517 7.42011 1.40517ZM17.7883 17.7942C18.0627 17.5198 18.0627 17.0749 17.7883 16.8006L14.6442 13.6565C14.3698 13.3821 13.9249 13.3821 13.6506 13.6565C13.3762 13.9309 13.3762 14.3758 13.6506 14.6501L16.7947 17.7942C16.9318 17.9314 17.1117 18 17.2915 18C17.4713 18 17.6511 17.9314 17.7883 17.7942Z" fill="#060606"/>
</svg>
