<svg width="12" height="10" viewBox="0 0 12 10" fill="none" xmlns="http://www.w3.org/2000/svg">
<path d="M11.2071 1.9853C10.7881 2.17153 10.3458 2.28793 9.88023 2.35776C10.3458 2.07842 10.7183 1.63611 10.8812 1.1007C10.4389 1.35677 9.95006 1.543 9.41465 1.65939C8.99562 1.21709 8.39037 0.937744 7.73856 0.937744C6.48149 0.937744 5.45721 1.96202 5.45721 3.21909C5.45721 3.40532 5.48049 3.56827 5.52705 3.73123C3.64145 3.63811 1.94208 2.73023 0.801411 1.33349C0.615178 1.68267 0.498783 2.05514 0.498783 2.47416C0.498783 3.26565 0.894527 3.96402 1.52306 4.38304C1.1506 4.35976 0.801411 4.26664 0.475504 4.10369V4.12697C0.475504 5.24436 1.26699 6.17552 2.31455 6.38503C2.12831 6.43159 1.9188 6.45487 1.70929 6.45487C1.56962 6.45487 1.40666 6.43159 1.26699 6.40831C1.56962 7.31619 2.40766 7.99129 3.40866 7.99129C2.61717 8.59654 1.63945 8.969 0.56862 8.969C0.382388 8.969 0.196156 8.969 0.0332031 8.94573C1.05748 9.59754 2.24471 9.97 3.54833 9.97C7.76184 9.97 10.0665 6.47815 10.0665 3.45188C10.0665 3.35876 10.0665 3.24237 10.0665 3.14925C10.5088 2.84662 10.9045 2.45088 11.2071 1.9853Z" fill="white"/>
</svg>
