<svg width="20" height="20" viewBox="0 0 20 20" fill="none" xmlns="http://www.w3.org/2000/svg">
<path fill-rule="evenodd" clip-rule="evenodd" d="M3.77996 12.946C4.54574 12.1802 5.58435 11.75 6.66732 11.75H13.334C14.417 11.75 15.4556 12.1802 16.2213 12.946C16.9871 13.7118 17.4173 14.7504 17.4173 15.8333V17.5C17.4173 17.9142 17.0815 18.25 16.6673 18.25C16.2531 18.25 15.9173 17.9142 15.9173 17.5V15.8333C15.9173 15.1482 15.6451 14.4911 15.1607 14.0066C14.6762 13.5222 14.0191 13.25 13.334 13.25H6.66732C5.98218 13.25 5.32509 13.5222 4.84062 14.0066C4.35616 14.4911 4.08398 15.1482 4.08398 15.8333V17.5C4.08398 17.9142 3.7482 18.25 3.33398 18.25C2.91977 18.25 2.58398 17.9142 2.58398 17.5V15.8333C2.58398 14.7504 3.01419 13.7118 3.77996 12.946Z" fill="#060606"/>
<path fill-rule="evenodd" clip-rule="evenodd" d="M9.99935 3.25C8.57261 3.25 7.41602 4.4066 7.41602 5.83333C7.41602 7.26007 8.57261 8.41667 9.99935 8.41667C11.4261 8.41667 12.5827 7.26007 12.5827 5.83333C12.5827 4.4066 11.4261 3.25 9.99935 3.25ZM5.91602 5.83333C5.91602 3.57817 7.74419 1.75 9.99935 1.75C12.2545 1.75 14.0827 3.57817 14.0827 5.83333C14.0827 8.0885 12.2545 9.91667 9.99935 9.91667C7.74419 9.91667 5.91602 8.0885 5.91602 5.83333Z" fill="#060606"/>
</svg>
